# AST/ASF file generated using VICON BodyLanguage
# -----------------------------------------------
:version 1.10
:name VICON
:units
  mass 1.0
  length 0.45
  angle deg
:documentation
   .ast/.asf automatically generated from VICON data using
   VICON BodyBuilder and BodyLanguage model FoxedUp or BRILLIANT.MOD
:root
   order TX TY TZ RX RY RZ
   axis XYZ
   position 0 0 0  
   orientation 0 0 0 
:bonedata
  begin
     id 1 
     name lhipjoint
     direction 0.690799 -0.707083 0.151096 
     length 2.54797 
     axis 0 0 0  XYZ
  end
  begin
     id 2 
     name lfemur
     direction 0.34202 -0.939693 0  
     length 7.21646  
     axis 0 0 20  XYZ
    dof rx ry rz
    limits (-160.0 20.0)
           (-70.0 70.0)
           (-60.0 70.0)
  end
  begin
     id 3 
     name ltibia
     direction 0.34202 -0.939693 0   
     length 8.16759   
     axis 0 0 20   XYZ
    dof rx
    limits (-10.0 170.0)
  end
  begin
     id 4 
     name lfoot
     direction 0.0487203 -0.133858 0.989802   
     length 1.93375   
     axis -90 7.62852e-016 20   XYZ
    dof rx rz
    limits (-45.0 90.0)
           (-70.0 20.0)
  end
  begin
     id 5 
     name ltoes
     direction 1.53453e-011 -4.21783e-011 1   
     length 0.979747   
     axis -90 7.62852e-016 20   XYZ
    dof rx
    limits (-90.0 20.0)
  end
  begin
     id 6 
     name rhipjoint
     direction -0.694693 -0.703425 0.150315   
     length 2.56122  
     axis 0 0 0  XYZ 
  end
  begin
     id 7 
     name rfemur
     direction -0.34202 -0.939693 0   
     length 7.36786   
     axis 0 0 -20   XYZ
    dof rx ry rz
    limits (-160.0 20.0)
           (-70.0 70.0)
           (-70.0 60.0)
  end
  begin
     id 8 
     name rtibia
     direction -0.34202 -0.939693 0   
     length 8.07288   
     axis 0 0 -20   XYZ
    dof rx
    limits (-10.0 170.0)
 end
 begin
     id 9 
     name rfoot
     direction -0.0428397 -0.117701 0.992125   
     length 1.88295  
     axis -90 -7.62852e-016 -20   XYZ
    dof rx rz
    limits (-45.0 90.0)
           (-20.0 70.0)
  end
  begin
     id 10 
     name rtoes
     direction -1.53456e-011 -4.2187e-011 1   
     length 0.955578   
     axis -90 -7.62852e-016 -20   XYZ
    dof rx
    limits (-90.0 20.0)
  end
  begin
     id 11 
     name lowerback
     direction 0.0288145 0.999398 -0.0193241   
     length 1.92149   
     axis 0 0 0   XYZ
    dof rx ry rz
    limits (-20.0 45.0)
           (-30.0 30.0)
           (-30.0 30.0)
  end
  begin
     id 12 
     name upperback
     direction 0.0233784 0.998099 0.0570278   
     length 1.90435   
     axis 0 0 0   XYZ
    dof rx ry rz
    limits (-20.0 45.0)
           (-30.0 30.0)
           (-30.0 30.0)
  end
  begin
     id 13 
     name thorax
     direction 0.0096694 0.997833 0.0650817   
     length 1.9111   
     axis 0 0 0   XYZ
    dof rx ry rz
    limits (-20.0 45.0)
           (-30.0 30.0)
           (-30.0 30.0)
  end
  begin
     id 14 
     name lowerneck
     direction 0.00516803 0.999916 0.0118722   
     length 1.74664   
     axis 0 0 0   XYZ
    dof rx ry rz
    limits (-20.0 45.0)
           (-30.0 30.0)
           (-30.0 30.0)
  end
  begin
     id 15 
     name upperneck
     direction -0.0510851 0.996117 -0.071696   
     length 1.68498   
     axis 0 0 0   XYZ
    dof rx ry rz
    limits (-20.0 45.0)
           (-30.0 30.0)
           (-30.0 30.0)
  end
  begin
     id 16
     name head
     direction -0.019188 0.999436 -0.0275702  
     length 1.83483  
     axis 0 0 0   XYZ
    dof rx ry rz
    limits (-20.0 45.0)
           (-30.0 30.0)
           (-30.0 30.0)
  end
  begin
     id 17 
     name lclavicle
     direction 0.967006 0.248456 -0.0562957  
     length 3.39395  
     axis 0 0 0   XYZ
    dof ry rz
    limits (-20.0 10.0)
           (0.0 20.0)
  end
  begin
     id 18 
     name lhumerus
     direction 1 -4.48962e-011 -5.62711e-019   
     length 5.24318   
     axis 180 -30 -90   XYZ
    dof rx ry rz
    limits (-60.0 90.0)
           (-90.0 90.0)
           (-90.0 90.0)
  end
  begin
     id 19
     name lradius
     direction 1 -4.48966e-011 7.90625e-027   
     length 2.98999   
     axis 180 -30 -90   XYZ
    dof rx
    limits (-10.0 170.0)
  end
  begin
     id 20
     name lwrist
     direction 1 -4.48959e-011 1.61068e-026   
     length 1.49499   
     axis -9.31229e-015 90 90   XYZ
    dof ry
    limits (-180.0 0.0)
 end
  begin
     id 21 
     name lhand
     direction 1 -4.49017e-011 3.22136e-026   
     length 0.726745   
     axis -2.0555e-014 90 90   XYZ
    dof rx rz
    limits (-90.0 90.0)
           (-45.0 45.0)
  end
  begin
     id 22 
     name lfingers
     direction 1 -4.4898e-011 6.44272e-026   
     length 0.58592   
     axis -4.11101e-014 90 90   XYZ
    dof rx
    limits (0.0 90.0)
  end
  begin
     id 23
     name lthumb
     direction 0.707107 -6.34922e-011 0.707107   
     length 0.841268   
     axis -90 45 2.85299e-015   XYZ
    dof rx rz
    limits (-45.0 45.0)
           (-45.0 45.0)
  end
  begin
     id 24 
     name rclavicle
     direction -0.972232 0.230238 0.0419005   
     length 3.40416  
     axis 0 0 0   XYZ 
    dof ry rz
    limits (-10.0 20.0)
           (-20.0 0.0)
  end
  begin
     id 25 
     name rhumerus
     direction -1 -4.48976e-011 2.48487e-027  
     length 5.37045   
     axis 180 30 90   XYZ
    dof rx ry rz
    limits (-90.0 60.0)
           (-90.0 90.0)
           (-90.0 90.0)
  end
  begin
     id 26 
     name rradius
     direction -1 -4.48942e-011 7.87951e-027   
     length 2.92792   
     axis 180 30 90   XYZ
    dof rx
    limits (-10.0 170.0)
  end
  begin
     id 27 
     name rwrist
     direction -1 -4.48969e-011 1.61068e-026   
     length 1.46396   
     axis -9.31229e-015 -90 -90   XYZ
    dof ry
    limits (-180.0 0.0)
  end
  begin
     id 28
     name rhand
     direction -1 -4.49043e-011 3.22136e-026   
     length 0.784497   
     axis -2.0555e-014 -90 -90   XYZ
    dof rx rz
    limits (-90.0 90.0)
           (-45.0 45.0)
  end
  begin
     id 29
     name rfingers
     direction -1 -4.48823e-011 6.44272e-026   
     length 0.632482   
     axis -4.11101e-014 -90 -90   XYZ
    dof rx
    limits (0.0 90.0)
  end
  begin
     id 30
     name rthumb
     direction -0.707107 -6.34923e-011 0.707107   
     length 0.908121   
     axis -90 -45 -2.85299e-015   XYZ
    dof rx rz
    limits (-45.0 45.0)
           (-45.0 45.0)
  end
:hierarchy
  begin
    root lhipjoint rhipjoint lowerback
    lhipjoint lfemur
    lfemur ltibia
    ltibia lfoot
    lfoot ltoes
    rhipjoint rfemur
    rfemur rtibia
    rtibia rfoot
    rfoot rtoes
    lowerback upperback
    upperback thorax
    thorax lowerneck lclavicle rclavicle
    lowerneck upperneck
    upperneck head
    lclavicle lhumerus
    lhumerus lradius
    lradius lwrist
    lwrist lhand lthumb
    lhand lfingers
    rclavicle rhumerus
    rhumerus rradius
    rradius rwrist
    rwrist rhand rthumb
    rhand rfingers
  end

#!OML:ASF E:\Style6\Style6.ASF
:FULLY-SPECIFIED
:DEGREES
1208
root 0.569485 16.1225 0.498071 14.4765 -3.60749 -0.798073
lowerback 6.52737 -2.98802 4.14353
upperback -6.66925 -3.05638 5.4172
thorax -10.7658 -1.548 4.01295
lowerneck -13.812 0.200189 5.61967
upperneck 24.9307 -1.26478 0.156886
head 10.2179 -0.0561828 -1.06113
rclavicle -3.598e-014 2.8625e-014
rhumerus 10.8249 -36.5869 13.2629
rradius 58.1432
rwrist 34.3794
rhand 23.6805 1.50779
rfingers 7.12502
rthumb 47.947 -20.7297
lclavicle -3.598e-014 2.8625e-014
lhumerus -96.6384 -53.5342 121.797
lradius 88.0344
lwrist 28.6474
lhand 5.03657 7.91349
lfingers 7.12502
lthumb 30.4048 35.4267
rfemur -45.4614 -19.7982 22.5956
rtibia 62.2029
rfoot -21.4119 15.0235
rtoes 5.44904
lfemur -44.9075 17.3312 -22.086
ltibia 63.3267
lfoot -27.5202 -5.04069
ltoes -16.6059
1209
root 0.56288 16.1394 0.497337 14.521 -3.51981 -1.00171
lowerback 6.55615 -2.99322 4.13649
upperback -6.65915 -3.06376 5.4056
thorax -10.7716 -1.55142 4.00679
lowerneck -13.9701 0.219368 5.63223
upperneck 24.9807 -1.20125 -0.0334998
head 10.2656 -0.0460846 -1.12365
rclavicle 1.09332e-014 -4.45278e-014
rhumerus 10.5788 -36.4782 13.2005
rradius 58.3802
rwrist 34.1907
rhand 23.6452 1.35316
rfingers 7.12502
rthumb 47.9145 -20.8995
lclavicle 1.09332e-014 -4.45278e-014
lhumerus -96.5802 -53.8392 121.612
lradius 88.1877
lwrist 28.7515
lhand 4.91654 7.85305
lfingers 7.12502
lthumb 30.2904 35.3874
rfemur -45.325 -19.824 22.8717
rtibia 61.9133
rfoot -21.2005 15.164
rtoes 6.26227
lfemur -44.8572 17.2687 -21.8101
ltibia 63.1623
lfoot -27.4509 -4.96041
ltoes -17.1447
1210
root 0.558033 16.1538 0.497786 14.5478 -3.43796 -1.17126
lowerback 6.61308 -2.99136 4.11708
upperback -6.69972 -3.05736 5.40002
thorax -10.8512 -1.54629 4.01821
lowerneck -14.0279 0.224886 5.6724
upperneck 25.0642 -1.14073 -0.288732
head 10.3053 -0.0423288 -1.21419
rclavicle 1.66979e-014 1.90833e-014
rhumerus 10.3739 -36.2604 13.0977
rradius 58.4631
rwrist 33.7516
rhand 23.3035 1.19252
rfingers 7.12502
rthumb 47.5992 -21.2051
lclavicle 1.66979e-014 1.90833e-014
lhumerus -96.6474 -54.0994 121.54
lradius 88.354
lwrist 28.9554
lhand 5.05483 7.99238
lfingers 7.12502
lthumb 30.4223 35.5024
rfemur -45.1751 -19.861 23.1004
rtibia 61.6224
rfoot -21.0594 15.1925
rtoes 6.65079
lfemur -44.7815 17.1732 -21.5754
ltibia 62.9753
lfoot -27.3795 -4.92714
ltoes -17.1826
1211
root 0.55227 16.1713 0.498295 14.5756 -3.42975 -1.16405
lowerback 6.68297 -2.9623 3.8846
upperback -6.78992 -3.04037 5.34899
thorax -10.9836 -1.52117 4.10158
lowerneck -13.9086 0.199893 5.71639
upperneck 25.0652 -1.10667 -0.555217
head 10.2797 -0.0542448 -1.31129
rclavicle -4.57205e-015 -4.6118e-014
rhumerus 10.1732 -36.0124 12.9909
rradius 58.5152
rwrist 33.5478
rhand 23.1543 1.18148
rfingers 7.12502
rthumb 47.4614 -21.2787
lclavicle -4.57205e-015 -4.6118e-014
lhumerus -97.012 -54.3838 121.686
lradius 88.5848
lwrist 29.0191
lhand 5.25013 8.20223
lfingers 7.12502
lthumb 30.6085 35.6776
rfemur -45.0516 -19.8234 23.1199
rtibia 61.3277
rfoot -20.8782 15.184
rtoes 7.09956
lfemur -44.6768 17.0912 -21.5491
ltibia 62.7346
lfoot -27.2665 -5.00105
ltoes -16.8721
1212
root 0.547678 16.1938 0.499422 14.6196 -3.43541 -1.21383
lowerback 6.72868 -2.92976 3.68044
upperback -6.86353 -3.01372 5.35025
thorax -11.0828 -1.49114 4.22167
lowerneck -13.8216 0.164641 5.69303
upperneck 25.0526 -1.07692 -0.803498
head 10.2554 -0.0724064 -1.39107
rclavicle 9.93923e-016 -2.38542e-014
rhumerus 9.96074 -35.788 12.8827
rradius 58.5801
rwrist 33.4295
rhand 23.1384 1.08712
rfingers 7.12502
rthumb 47.4468 -21.3797
lclavicle 9.93923e-016 -2.38542e-014
lhumerus -97.3714 -54.6979 121.851
lradius 88.7753
lwrist 28.9723
lhand 5.11267 8.18399
lfingers 7.12502
lthumb 30.4774 35.6837
rfemur -44.9097 -19.7219 23.1907
rtibia 60.9851
rfoot -20.6362 15.1767
rtoes 7.60085
lfemur -44.5805 17.074 -21.4806
ltibia 62.4675
lfoot -27.1126 -5.03972
ltoes -16.9394
1213
root 0.545966 16.2183 0.503438 14.628 -3.31362 -1.38013
lowerback 6.64825 -2.9608 3.64895
upperback -6.84115 -3.06 5.4223
thorax -11.0015 -1.50881 4.31726
lowerneck -13.8334 0.165769 5.62427
upperneck 25.0894 -0.986586 -1.07296
head 10.2705 -0.0682131 -1.46411
rclavicle -8.64713e-015 2.54444e-014
rhumerus 9.8659 -35.7183 12.6989
rradius 58.5463
rwrist 33.3539
rhand 23.141 1.13098
rfingers 7.12502
rthumb 47.4491 -21.3348
lclavicle -8.64713e-015 2.54444e-014
lhumerus -97.4536 -55.0609 121.811
lradius 88.9112
lwrist 29.1606
lhand 4.95706 8.11378
lfingers 7.12502
lthumb 30.329 35.641
rfemur -44.6633 -19.7249 23.3918
rtibia 60.6042
rfoot -20.5319 15.0202
rtoes 7.29049
lfemur -44.4268 17.0389 -21.2598
ltibia 62.1967
lfoot -27.0089 -5.10321
ltoes -17.1543
1214
root 0.54497 16.2429 0.507682 14.624 -3.13921 -1.54058
lowerback 6.52047 -3.029 3.62703
upperback -6.77812 -3.15869 5.5213
thorax -10.8425 -1.55253 4.43787
lowerneck -13.8995 0.22369 5.5898
upperneck 25.1001 -0.812055 -1.39928
head 10.2896 -0.0292223 -1.55255
rclavicle 3.25013e-014 -2.22639e-014
rhumerus 9.90494 -35.7783 12.3808
rradius 58.3917
rwrist 33.4272
rhand 23.152 1.37502
rfingers 7.12502
rthumb 47.4592 -21.0862
lclavicle 3.25013e-014 -2.22639e-014
lhumerus -97.3298 -55.3887 121.578
lradius 88.9736
lwrist 29.363
lhand 4.89122 7.91045
lfingers 7.12502
lthumb 30.2662 35.4492
rfemur -44.3846 -19.7378 23.5825
rtibia 60.2093
rfoot -20.4652 14.8479
rtoes 7.03708
lfemur -44.2806 16.9774 -21.0389
ltibia 61.9333
lfoot -26.9319 -5.25334
ltoes -17.1117
1215
root 0.543597 16.2634 0.511122 14.6194 -3.03688 -1.68962
lowerback 6.53738 -3.04615 3.57807
upperback -6.80835 -3.17809 5.59529
thorax -10.8794 -1.5541 4.55298
lowerneck -13.8284 0.249797 5.59003
upperneck 25.0522 -0.684884 -1.71339
head 10.2597 -0.00837728 -1.64705
rclavicle 1.69961e-014 -1.27222e-014
rhumerus 9.80582 -35.7112 12.1242
rradius 58.2427
rwrist 33.6277
rhand 23.1818 1.67007
rfingers 7.12502
rthumb 47.4868 -20.7787
lclavicle 1.69961e-014 -1.27222e-014
lhumerus -97.5649 -55.653 121.568
lradius 89.1641
lwrist 29.4581
lhand 4.89211 7.88484
lfingers 7.12502
lthumb 30.2671 35.4234
rfemur -44.1367 -19.6541 23.7384
rtibia 59.826
rfoot -20.3413 14.7175
rtoes 7.14058
lfemur -44.1602 16.9857 -20.8443
ltibia 61.6888
lfoot -26.8125 -5.38979
ltoes -17.0293
1216
root 0.544264 16.285 0.51525 14.5855 -2.96365 -1.75831
lowerback 6.67265 -2.99753 3.47186
upperback -6.90704 -3.10719 5.62064
thorax -11.0688 -1.50704 4.64801
lowerneck -13.8124 0.194222 5.54018
upperneck 25.1718 -0.67945 -1.97881
head 10.297 -0.0396109 -1.73377
rclavicle 2.9122e-014 -4.45278e-014
rhumerus 9.37301 -35.3976 12.1715
rradius 58.1705
rwrist 33.6396
rhand 23.182 1.89549
rfingers 7.12502
rthumb 47.4869 -20.5532
lclavicle 2.9122e-014 -4.45278e-014
lhumerus -98.0843 -56.0516 121.83
lradius 89.3959
lwrist 29.5597
lhand 5.06014 7.97802
lfingers 7.12502
lthumb 30.4273 35.4871
rfemur -43.8552 -19.55 23.773
rtibia 59.4377
rfoot -20.134 14.6391
rtoes 7.77081
lfemur -43.9601 16.9145 -20.7149
ltibia 61.412
lfoot -26.6291 -5.64639
ltoes -16.2152
1217
root 0.545441 16.3091 0.521663 14.5491 -2.83805 -1.84483
lowerback 6.70122 -2.97743 3.41437
upperback -6.95489 -3.07821 5.66115
thorax -11.1365 -1.48526 4.72626
lowerneck -13.9337 0.190908 5.5767
upperneck 25.4005 -0.607996 -2.32935
head 10.4034 -0.0410178 -1.86
rclavicle 2.60408e-014 -3.33958e-014
rhumerus 8.97121 -35.164 12.1425
rradius 58.1028
rwrist 33.7166
rhand 23.0694 2.07425
rfingers 7.12502
rthumb 47.383 -20.4214
lclavicle 2.60408e-014 -3.33958e-014
lhumerus -98.5307 -56.5414 122.052
lradius 89.564
lwrist 29.6156
lhand 4.71153 7.99606
lfingers 7.12502
lthumb 30.0948 35.5661
rfemur -43.5286 -19.4727 23.8282
rtibia 59.0315
rfoot -20.0791 14.3578
rtoes 7.19237
lfemur -43.7217 16.8217 -20.5539
ltibia 61.1071
lfoot -26.4318 -6.04563
ltoes -15.1142
